<svg width="461" height="126" viewBox="0 0 461 126" fill="none" xmlns="http://www.w3.org/2000/svg">
<path d="M88.8672 98H76.0742V56.3008L53.5645 95.9004C53.0111 96.9095 52.2298 97.6745 51.2207 98.1953C50.2441 98.7161 49.1862 98.9766 48.0469 98.9766C46.9401 98.9766 45.8984 98.7161 44.9219 98.1953C43.9779 97.6745 43.2292 96.9095 42.6758 95.9004L20.0684 56.3008V98H7.37305V33.4004C7.37305 31.9355 7.79622 30.6335 8.64258 29.4941C9.52148 28.3548 10.6608 27.5898 12.0605 27.1992C12.7441 27.0365 13.4277 26.9876 14.1113 27.0527C14.7949 27.0853 15.446 27.2318 16.0645 27.4922C16.7155 27.7201 17.3014 28.0618 17.8223 28.5176C18.3431 28.9408 18.7826 29.4616 19.1406 30.0801L48.0469 80.3242L76.9531 30.0801C77.7018 28.8431 78.7272 27.9642 80.0293 27.4434C81.3639 26.9225 82.7474 26.8411 84.1797 27.1992C85.5469 27.5898 86.6699 28.3548 87.5488 29.4941C88.4277 30.6335 88.8672 31.9355 88.8672 33.4004V98Z" fill="#89023E"/>
<path d="M197.703 98.3273H185.008V81.1398H140.379V98.3273H127.684V63.3175C127.684 58.2068 128.562 53.5031 130.32 49.2062C132.078 44.9093 134.52 41.2146 137.645 38.1222C140.77 35.0297 144.464 32.6209 148.729 30.8956C152.993 29.1704 157.648 28.3077 162.693 28.3077H191.307C192.186 28.3077 193.016 28.4705 193.797 28.796C194.578 29.1215 195.262 29.5773 195.848 30.1632C196.434 30.7491 196.889 31.4327 197.215 32.214C197.54 32.9952 197.703 33.8253 197.703 34.7042V98.3273ZM140.379 68.4445H185.008V41.0031H162.693C162.303 41.0031 161.473 41.0682 160.203 41.1984C158.966 41.296 157.518 41.5727 155.857 42.0284C154.23 42.4842 152.505 43.184 150.682 44.1281C148.859 45.0721 147.182 46.3741 145.652 48.0343C144.122 49.6945 142.853 51.7778 141.844 54.2843C140.867 56.7583 140.379 59.7693 140.379 63.3175V68.4445Z" fill="#FFD9DA"/>
<path d="M306.368 51.3884C306.368 54.2855 306.01 56.8734 305.294 59.152C304.578 61.4307 303.601 63.4489 302.364 65.2067C301.16 66.932 299.76 68.4131 298.165 69.6501C296.57 70.887 294.894 71.9124 293.136 72.7262C291.411 73.5075 289.653 74.0772 287.863 74.4352C286.105 74.7933 284.445 74.9723 282.882 74.9723L309.396 97.8727H289.767L263.302 74.9723H254.171V62.277H282.882C284.477 62.1468 285.926 61.8213 287.228 61.3005C288.562 60.7471 289.702 60.0147 290.646 59.1032C291.622 58.1917 292.371 57.1012 292.892 55.8317C293.413 54.5296 293.673 53.0485 293.673 51.3884V43.3805C293.673 42.6644 293.575 42.1273 293.38 41.7692C293.217 41.3786 292.989 41.1019 292.697 40.9391C292.436 40.7438 292.143 40.6299 291.818 40.5973C291.525 40.5648 291.248 40.5485 290.988 40.5485H249.093V97.8727H236.398V34.2497C236.398 33.3708 236.56 32.5407 236.886 31.7594C237.211 30.9782 237.651 30.2946 238.204 29.7087C238.79 29.1227 239.474 28.667 240.255 28.3415C241.036 28.016 241.883 27.8532 242.794 27.8532H290.988C293.82 27.8532 296.212 28.374 298.165 29.4157C300.118 30.4248 301.697 31.7106 302.902 33.2731C304.139 34.8031 305.017 36.4632 305.538 38.2536C306.092 40.044 306.368 41.7204 306.368 43.2829V51.3884Z" fill="#EA638C"/>
<path d="M353.166 98H340.471V27.9805H353.166V98Z" fill="#89023E"/>
<path d="M445.654 41.6758H417.676V99H404.98V41.6758H376.953V28.9805H445.654V41.6758Z" fill="#FFD9DA"/>
</svg>
