<?xml version="1.0" standalone="no"?>
<!DOCTYPE svg PUBLIC "-//W3C//DTD SVG 20010904//EN"
 "http://www.w3.org/TR/2001/REC-SVG-20010904/DTD/svg10.dtd">
<svg version="1.0" xmlns="http://www.w3.org/2000/svg"
 width="200.000000pt" height="200.000000pt" viewBox="0 0 200.000000 200.000000"
 preserveAspectRatio="xMidYMid meet">
<metadata>
Created by potrace 1.14, written by Peter Selinger 2001-2017
</metadata>
<g transform="translate(0.000000,200.000000) scale(0.100000,-0.100000)"
fill="#000000" stroke="none">
<path d="M982 1635 c-17 -8 -47 -26 -66 -40 -20 -16 -58 -30 -95 -36 -48 -9
-66 -17 -86 -41 -32 -38 -34 -94 -4 -132 30 -38 39 -32 39 24 l0 50 55 0 55 0
0 -95 0 -95 -54 0 c-30 0 -57 5 -59 10 -3 6 -4 5 -3 -2 2 -8 23 -14 57 -16 29
-2 57 -9 61 -15 4 -7 8 41 8 106 l0 117 130 0 131 0 -3 -112 -3 -113 -125 -5
-125 -6 90 -4 c124 -5 168 -1 181 16 7 8 28 14 52 14 72 0 72 0 72 120 0 115
-2 120 -55 120 -17 0 -24 7 -28 29 -18 89 -135 145 -225 106z m123 -145 c-3
-5 -37 -10 -76 -10 -39 0 -69 4 -69 10 0 6 32 10 76 10 47 0 73 -4 69 -10z
m-225 -10 c0 -5 -25 -8 -55 -7 -72 3 -72 17 0 17 30 0 55 -4 55 -10z m385 0
c4 -6 -12 -10 -39 -10 -25 0 -46 5 -46 10 0 6 18 10 39 10 22 0 43 -4 46 -10z
m3 -112 l-3 -93 -42 -3 -43 -3 0 95 0 96 45 0 46 0 -3 -92z"/>
<path d="M328 1469 c-27 -22 -38 -39 -38 -58 0 -37 -18 -56 -62 -71 -52 -16
-54 -26 -13 -52 36 -23 36 -23 30 -78 -6 -51 -4 -58 26 -99 l32 -44 28 34 28
34 1 -147 0 -148 30 0 29 0 3 81 3 81 42 -75 c24 -41 50 -80 58 -87 21 -18 32
-6 89 95 l46 80 0 -87 0 -88 30 0 30 0 0 144 c0 115 -3 146 -15 156 -22 18
-36 3 -96 -104 -75 -131 -66 -128 -117 -39 -78 137 -92 155 -113 150 -18 -5
-18 -4 2 24 24 34 30 35 88 9 24 -11 46 -18 49 -16 2 3 -8 39 -23 79 l-27 75
36 53 c19 29 34 54 33 56 -2 1 -27 -4 -57 -12 -30 -8 -55 -13 -56 -12 -1 1
-11 23 -22 50 -12 26 -25 47 -29 47 -4 -1 -25 -14 -45 -31z m101 -85 c80 24
80 23 39 -37 -19 -27 -19 -28 1 -82 12 -31 21 -60 21 -65 0 -5 -20 0 -45 12
-24 12 -46 20 -48 17 -2 -2 -23 -32 -47 -67 -24 -34 -44 -61 -45 -60 -1 2 1
34 6 72 10 79 7 85 -51 111 -22 10 -40 21 -40 25 0 3 28 15 62 26 66 21 64 18
83 109 l7 30 20 -48 c15 -34 25 -46 37 -43z"/>
<path d="M959 1403 c-13 -15 -17 -22 -8 -15 9 6 20 8 24 4 5 -4 5 -1 1 6 -5 8
1 16 16 21 14 6 17 10 7 10 -8 1 -26 -11 -40 -26z"/>
<path d="M1063 1405 c0 -8 4 -12 9 -9 16 10 7 -13 -12 -31 -19 -18 -20 -17
-21 6 0 20 -4 17 -22 -18 -17 -35 -26 -43 -49 -43 -20 0 -26 -4 -22 -15 5 -11
22 -15 70 -15 56 0 65 3 80 25 19 29 12 75 -15 99 -15 13 -18 14 -18 1z m30
-76 c-3 -12 -14 -19 -29 -19 -30 0 -30 7 -2 37 23 25 39 16 31 -18z m-40 -36
c-18 -2 -48 -2 -65 0 -18 2 -4 4 32 4 36 0 50 -2 33 -4z"/>
<path d="M932 1345 c0 -16 2 -22 5 -12 2 9 2 23 0 30 -3 6 -5 -1 -5 -18z"/>
<path d="M863 1183 c15 -2 39 -2 55 0 15 2 2 4 -28 4 -30 0 -43 -2 -27 -4z"/>
<path d="M1123 1183 c15 -2 39 -2 55 0 15 2 2 4 -28 4 -30 0 -43 -2 -27 -4z"/>
<path d="M1304 1156 c-10 -26 4 -48 28 -44 17 2 23 10 23 28 0 18 -6 26 -23
28 -13 2 -25 -3 -28 -12z"/>
<path d="M1390 1115 c0 -24 3 -25 60 -25 l60 0 0 -125 0 -125 30 0 29 0 3 123
3 122 63 3 c58 3 62 4 62 27 l0 25 -155 0 -155 0 0 -25z"/>
<path d="M978 1123 c29 -2 74 -2 100 0 26 2 2 3 -53 3 -55 0 -76 -1 -47 -3z"/>
<path d="M814 1055 c-14 -35 3 -45 76 -45 l71 0 -3 -57 -3 -58 -64 -3 c-44 -2
-67 1 -72 10 -14 23 12 38 67 38 51 0 54 1 54 25 0 24 -2 25 -65 25 -57 0 -69
-3 -90 -25 -32 -31 -33 -74 -2 -103 20 -19 35 -22 101 -22 42 0 86 5 96 10 49
26 51 162 3 200 -33 26 -160 30 -169 5z"/>
<path d="M1085 1046 c-23 -23 -25 -32 -25 -116 l0 -90 30 0 30 0 0 85 0 84 73
3 c69 3 72 4 72 28 0 24 -2 25 -78 28 -71 3 -79 1 -102 -22z"/>
<path d="M1300 955 l0 -115 30 0 30 0 0 115 0 115 -30 0 -30 0 0 -115z"/>
<path d="M1649 882 c19 -9 40 -27 48 -38 12 -19 11 -25 -11 -51 -45 -53 -194
-103 -436 -147 -198 -36 -362 -49 -583 -45 -108 2 -184 1 -169 -4 218 -60 668
-51 941 19 219 57 348 152 312 230 -12 28 -66 54 -108 54 l-28 -1 34 -17z"/>
</g>
</svg>
