<svg width="396" height="431" viewBox="0 0 396 431" fill="none" xmlns="http://www.w3.org/2000/svg">
<path d="M315.538 383.43C316.177 386.394 314.489 389.649 310.556 393.02C306.646 396.371 300.634 399.733 292.949 402.907C277.585 409.252 255.641 414.806 230.761 418.052C205.88 421.298 182.809 421.617 165.627 419.518C157.032 418.468 149.941 416.816 144.841 414.64C139.711 412.452 136.752 409.803 136.113 406.839C135.475 403.874 137.163 400.62 141.096 397.249C145.006 393.897 151.018 390.536 158.703 387.362C174.067 381.017 196.011 375.463 220.891 372.217C245.772 368.971 268.843 368.651 286.025 370.751C294.619 371.801 301.711 373.453 306.811 375.628C311.941 377.817 314.9 380.465 315.538 383.43Z" fill="#C4C4C4" stroke="black"/>
<mask id="path-2-inside-1_1_39" fill="white">
<path fill-rule="evenodd" clip-rule="evenodd" d="M243.837 416.978C254.179 410.392 259.79 399.174 257.26 387.422C255.72 380.27 251.412 374.071 245.45 369.501C285.288 366.904 316.396 372.316 318.76 383.294C321.349 395.319 288.533 409.786 243.837 416.978ZM209.002 420.787C170.442 422.978 140.654 417.565 138.343 406.832C136.263 397.171 157.037 385.933 188.465 378.159C185.336 383.706 184.179 390.154 185.604 396.771C188.021 407.995 197.255 416.875 209.002 420.787Z"/>
</mask>
<path fill-rule="evenodd" clip-rule="evenodd" d="M243.837 416.978C254.179 410.392 259.79 399.174 257.26 387.422C255.72 380.27 251.412 374.071 245.45 369.501C285.288 366.904 316.396 372.316 318.76 383.294C321.349 395.319 288.533 409.786 243.837 416.978ZM209.002 420.787C170.442 422.978 140.654 417.565 138.343 406.832C136.263 397.171 157.037 385.933 188.465 378.159C185.336 383.706 184.179 390.154 185.604 396.771C188.021 407.995 197.255 416.875 209.002 420.787Z" fill="#EA638C"/>
<path d="M257.26 387.422L258.237 387.212L258.237 387.212L257.26 387.422ZM243.837 416.978L243.299 416.135L243.995 417.965L243.837 416.978ZM245.45 369.501L245.385 368.503L242.73 368.676L244.842 370.295L245.45 369.501ZM318.76 383.294L317.782 383.504L318.76 383.294ZM209.002 420.787L209.059 421.785L209.318 419.838L209.002 420.787ZM138.343 406.832L137.366 407.043L137.366 407.043L138.343 406.832ZM188.465 378.159L189.336 378.65L190.474 376.631L188.224 377.188L188.465 378.159ZM185.604 396.771L184.627 396.981L184.627 396.981L185.604 396.771ZM256.282 387.633C258.711 398.913 253.347 409.737 243.299 416.135L244.374 417.822C255.012 411.048 260.869 399.435 258.237 387.212L256.282 387.633ZM244.842 370.295C250.644 374.742 254.799 380.746 256.282 387.633L258.237 387.212C256.64 379.795 252.18 373.399 246.059 368.707L244.842 370.295ZM245.516 370.499C265.384 369.204 283.032 369.909 295.977 372.29C302.455 373.482 307.702 375.083 311.449 377.03C315.228 378.992 317.286 381.198 317.782 383.504L319.737 383.083C319.052 379.9 316.335 377.314 312.371 375.255C308.376 373.18 302.913 371.533 296.339 370.323C283.179 367.903 265.355 367.201 245.385 368.503L245.516 370.499ZM317.782 383.504C318.317 385.987 317.073 388.808 313.751 391.885C310.455 394.938 305.311 398.046 298.622 401.035C285.259 407.008 265.972 412.403 243.678 415.991L243.995 417.965C266.397 414.361 285.866 408.927 299.438 402.861C306.217 399.832 311.585 396.618 315.11 393.352C318.61 390.11 320.497 386.613 319.737 383.083L317.782 383.504ZM208.945 419.788C189.715 420.881 172.717 420.074 160.269 417.674C154.04 416.473 149.003 414.883 145.406 412.966C141.783 411.035 139.806 408.875 139.321 406.622L137.366 407.043C138.036 410.155 140.649 412.697 144.466 414.731C148.31 416.78 153.563 418.418 159.89 419.638C172.554 422.08 189.729 422.884 209.059 421.785L208.945 419.788ZM139.321 406.622C138.891 404.625 139.604 402.42 141.641 400.016C143.678 397.61 146.948 395.126 151.329 392.659C160.081 387.732 173.036 383.006 188.705 379.129L188.224 377.188C172.466 381.086 159.319 385.866 150.348 390.916C145.867 393.439 142.369 396.061 140.114 398.723C137.858 401.386 136.755 404.209 137.366 407.043L139.321 406.622ZM186.582 396.56C185.211 390.193 186.321 383.994 189.336 378.65L187.594 377.667C184.35 383.417 183.148 390.114 184.627 396.981L186.582 396.56ZM209.318 419.838C197.829 416.012 188.909 407.366 186.582 396.56L184.627 396.981C187.134 408.624 196.68 417.737 208.686 421.735L209.318 419.838Z" fill="black" mask="url(#path-2-inside-1_1_39)"/>
<path d="M6.29865 3.38771C-21.181 45.6403 64.895 122.6 111.368 155.799C151.106 187.991 215.629 227.025 155.82 125.618C81.0594 -1.13935 30.5454 -4.1574 6.29865 3.38771Z" fill="#EA638C" stroke="black"/>
<path d="M269.683 82.5815C274.257 92.0747 271.589 114.225 269.683 124.114C269.683 149.33 279.973 188.489 321.133 143.397C362.293 98.3045 343.365 54.3988 328.755 38.0825C307.159 48.9601 265.11 73.0884 269.683 82.5815Z" fill="#EA638C" stroke="black"/>
<path d="M33.3944 2.4833C71.5055 17.9096 124.226 96.9201 145.822 134.497C160.431 157.241 183.933 188.193 161.067 130.047C132.483 57.3654 69.6 12.8664 33.3944 2.4833Z" fill="#FFFBFB"/>
<path d="M191.556 104.831C225.093 116.697 296.996 65.2764 328.755 38.0825C305.889 21.7662 298.267 17.3163 277.305 14.3497C195.367 26.2161 180.122 73.6817 191.556 104.831Z" fill="#FFFBFB"/>
<path d="M33.3944 2.4833C71.5055 17.9096 124.226 96.9201 145.822 134.497C160.431 157.241 183.933 188.193 161.067 130.047C132.483 57.3654 69.6 12.8664 33.3944 2.4833Z" stroke="black"/>
<path d="M191.556 104.831C225.093 116.697 296.996 65.2764 328.755 38.0825C305.889 21.7662 298.267 17.3163 277.305 14.3497C195.367 26.2161 180.122 73.6817 191.556 104.831Z" stroke="black"/>
<path d="M100.089 183.446C118.382 134.794 185.204 118.675 216.328 116.697C300.172 113.138 344 159.713 355.433 183.446C360.515 197.785 363.437 233.878 334.472 263.544C298.267 300.627 183.933 306.56 157.256 290.244C130.578 273.927 77.2222 244.261 100.089 183.446Z" fill="#FFFBFB" stroke="black"/>
<path d="M323.039 213.112C303.983 299.143 164.243 285.299 117.239 259.094C117.239 267.994 164.878 312.493 244.911 299.143C330.661 284.84 340.189 265.028 361.15 195.312C351.622 187.896 345.905 134.497 254.439 118.181C315.417 134.497 342.094 173.063 323.039 213.112Z" fill="#C4C4C4"/>
<path d="M103.9 239.811C132.483 262.061 164.878 269.477 164.878 269.477L185.839 257.611L206.8 275.411L231.572 265.028C231.572 265.028 286.833 267.994 326.85 257.611M103.9 239.811C103.9 239.811 113.428 272.444 164.878 291.727C216.328 311.01 290.644 285.794 290.644 285.794C290.644 285.794 313.511 279.861 334.472 265.028M103.9 239.811C100.089 233.878 93.61 215.189 98.1833 187.896C103.9 153.78 166.783 116.697 220.139 116.697C273.494 116.697 328.755 134.497 359.244 190.863" stroke="black"/>
<path d="M374.489 232.395C382.111 209.849 367.502 194.324 359.244 189.379C328.755 189.379 323.039 222.012 323.039 227.945C323.039 232.14 323.039 266.511 334.472 265.028C345.905 263.544 364.961 260.578 374.489 232.395Z" fill="#89023E"/>
<path d="M105.806 244.261C101.359 245.745 90.9422 246.041 84.8444 235.362C77.2222 222.012 81.0333 195.312 84.8444 190.863C88.6555 186.413 90.5611 183.446 98.1833 183.446M359.244 189.379C367.502 194.324 382.111 209.849 374.489 232.395C364.961 260.578 345.905 263.544 334.472 265.028C323.039 266.511 323.039 232.14 323.039 227.945C323.039 222.012 328.755 189.379 359.244 189.379Z" stroke="black"/>
<path d="M105.806 244.261C95.1344 232.395 96.2777 198.773 98.1833 183.446C82.9388 182.259 80.3981 202.729 81.0333 213.112C78.4926 223.495 79.89 244.261 105.806 244.261Z" fill="#89023E"/>
<path d="M183.933 312.493C159.542 311.307 157.256 297.166 159.161 290.244C222.044 311.01 263.967 293.21 309.7 278.377C319.228 303.593 290.644 306.56 284.928 309.527C279.211 312.493 216.328 318.426 183.933 312.493Z" fill="#89023E"/>
<path d="M105.806 244.261C95.1344 232.395 96.2777 198.773 98.1833 183.446C82.9388 182.259 80.3981 202.729 81.0333 213.112C78.4926 223.495 79.89 244.261 105.806 244.261Z" stroke="black"/>
<path d="M183.933 312.493C159.542 311.307 157.256 297.166 159.161 290.244C222.044 311.01 263.967 293.21 309.7 278.377C319.228 303.593 290.644 306.56 284.928 309.527C279.211 312.493 216.328 318.426 183.933 312.493Z" stroke="black"/>
<path d="M172.5 226.962C178.967 226.962 184.433 222.863 184.433 217.562C184.433 212.261 178.967 208.162 172.5 208.162C166.033 208.162 160.567 212.261 160.567 217.562C160.567 222.863 166.033 226.962 172.5 226.962Z" fill="#EA638C" stroke="#479DA8"/>
<path d="M237.289 229.928C243.756 229.928 249.222 225.829 249.222 220.529C249.222 215.228 243.756 211.129 237.289 211.129C230.822 211.129 225.355 215.228 225.355 220.529C225.355 225.829 230.822 229.928 237.289 229.928Z" fill="#EA638C" stroke="#43939E"/>
<path d="M393.544 352.542C385.922 326.436 361.15 323.865 349.717 325.843C351.622 346.609 351.622 391.108 359.244 394.075C366.867 397.041 403.072 385.175 393.544 352.542Z" fill="#EA638C" stroke="black"/>
<path d="M191.556 419.291C156.493 419.291 159.161 345.126 164.878 308.043C189.65 316.943 253.295 327.03 309.7 296.177C361.531 323.47 369.407 360.948 366.867 376.275C365.596 388.636 353.909 413.951 317.322 416.324C271.589 419.291 244.693 411.874 220.03 400.008C216.218 410.845 208.091 419.291 191.556 419.291Z" fill="#C4C4C4"/>
<path d="M222.044 354.026C220.858 357.72 226.321 382.121 220.03 400.008M220.03 400.008C216.218 410.845 208.091 419.291 191.556 419.291C156.493 419.291 159.161 345.126 164.878 308.043C189.65 316.943 253.295 327.03 309.7 296.177C361.531 323.47 369.407 360.948 366.867 376.275C365.596 388.636 353.909 413.951 317.322 416.324C271.589 419.291 244.693 411.874 220.03 400.008Z" stroke="black"/>
<path d="M220.139 388.142C206.419 401.195 175.676 392.097 164.878 388.142C164.878 402.975 176.311 419.291 191.556 419.291C206.8 419.291 218.233 410.391 220.139 388.142Z" fill="#EA638C" stroke="black"/>
<path d="M298.11 399.196C285.183 410.659 261.011 400.016 252.616 395.558C250.762 409.611 258.135 425.821 270.685 426.825C283.235 427.828 293.76 420.149 298.11 399.196Z" fill="#EA638C" stroke="black"/>
<path d="M267.778 322.876C253.804 352.048 234.24 413.654 267.778 426.707C305.889 431.157 313.511 346.609 307.794 322.876" stroke="black"/>
<path d="M155.35 297.66C170.594 309.527 262.061 316.943 315.417 285.794" stroke="#FFFCFC"/>
<rect width="34.2818" height="11.8768" rx="5.93841" transform="matrix(0.999182 -0.0404504 0.0666647 0.997775 210.712 302.212)" fill="black"/>
<path d="M161.493 385.283C159.571 385.283 163.414 412.091 188.396 416.324C174.944 410.68 169.179 400.804 161.493 385.283Z" fill="#FFFBFB"/>
<path d="M307.541 300.627C338.289 327.905 384.794 388.388 324.837 412.091C372.879 400.804 384.409 342.955 307.541 300.627Z" fill="#FFFBFB"/>
<path fill-rule="evenodd" clip-rule="evenodd" d="M360.463 327.328C370.896 327.211 386.528 331.98 391.905 352.204C398.433 376.76 379.16 388.449 368.607 390.298C377.59 385.649 383.976 373.775 383.976 359.86C383.976 342.017 373.474 327.528 360.463 327.328ZM358.374 327.42C357.31 327.502 356.323 327.634 355.433 327.804C355.438 327.86 355.443 327.916 355.447 327.973C356.403 327.708 357.38 327.522 358.374 327.42Z" fill="white"/>
</svg>
